<svg width="300" height="300" viewBox="0 0 300 300" fill="none" xmlns="http://www.w3.org/2000/svg">
<rect width="300" height="300" rx="20" fill="white"/>
<path d="M210.074 280C202.281 280 195.031 278.676 188.324 276.029C181.715 273.279 175.945 269.461 171.013 264.573C166.179 259.584 162.382 253.831 159.62 247.314C156.957 240.695 155.625 233.466 155.625 225.625C155.625 217.784 156.957 210.606 159.62 204.089C162.382 197.47 166.179 191.717 171.013 186.829C175.945 181.84 181.715 178.021 188.324 175.374C194.933 172.625 202.183 171.25 210.074 171.25C217.867 171.25 225.067 172.625 231.676 175.374C238.285 178.021 244.006 181.789 248.839 186.677C253.771 191.564 257.569 197.317 260.232 203.936C262.994 210.555 264.375 217.784 264.375 225.625C264.375 233.466 262.994 240.695 260.232 247.314C257.569 253.933 253.771 259.686 248.839 264.573C244.006 269.461 238.285 273.279 231.676 276.029C225.067 278.676 217.867 280 210.074 280ZM210.074 269.919C216.288 269.919 222.009 268.85 227.237 266.712C232.564 264.472 237.151 261.366 240.997 257.395C244.943 253.322 248.001 248.638 250.171 243.343C252.341 237.946 253.426 232.04 253.426 225.625C253.426 219.21 252.341 213.355 250.171 208.06C248.001 202.663 244.943 197.979 240.997 194.008C237.151 189.935 232.564 186.829 227.237 184.691C222.009 182.451 216.288 181.331 210.074 181.331C203.86 181.331 198.089 182.451 192.763 184.691C187.436 186.829 182.8 189.935 178.855 194.008C175.008 197.979 171.95 202.663 169.681 208.06C167.511 213.355 166.426 219.21 166.426 225.625C166.426 231.938 167.511 237.793 169.681 243.19C171.95 248.587 175.008 253.322 178.855 257.395C182.8 261.366 187.436 264.472 192.763 266.712C198.089 268.85 203.86 269.919 210.074 269.919Z" fill="black"/>
<path d="M93.4996 280C85.2255 280 77.5799 278.676 70.5626 276.029C63.5453 273.279 57.4707 269.461 52.3387 264.573C47.2067 259.686 43.1744 253.933 40.2418 247.314C37.4139 240.695 36 233.466 36 225.625C36 217.784 37.4139 210.555 40.2418 203.936C43.1744 197.317 47.2067 191.564 52.3387 186.677C57.5754 181.789 63.7025 178.021 70.7197 175.374C77.737 172.625 85.3826 171.25 93.6567 171.25C101.617 171.25 109.105 172.574 116.122 175.221C121.436 177.149 126.119 179.835 130.172 183.281C132.345 185.129 132.241 188.418 130.195 190.407C128.14 192.405 124.882 192.354 122.635 190.574C119.192 187.846 115.502 185.784 111.566 184.386C106.12 182.349 100.255 181.331 93.9709 181.331C87.3726 181.331 81.2456 182.451 75.5899 184.691C69.9342 186.829 65.0116 189.935 60.8222 194.008C56.6328 197.979 53.3337 202.663 50.9248 208.06C48.6206 213.355 47.4685 219.21 47.4685 225.625C47.4685 232.04 48.6206 237.946 50.9248 243.343C53.3337 248.638 56.6328 253.322 60.8222 257.395C65.0116 261.366 69.9342 264.472 75.5899 266.712C81.2456 268.85 87.3726 269.919 93.9709 269.919C100.255 269.919 106.12 268.901 111.566 266.864C115.504 265.392 119.196 263.281 122.641 260.531C124.882 258.742 128.14 258.692 130.195 260.691C132.241 262.68 132.345 265.967 130.176 267.821C126.123 271.287 121.438 274.023 116.122 276.029C109.105 278.676 101.564 280 93.4996 280Z" fill="black"/>
<path d="M79.4165 149.5C70.7332 149.5 62.3839 148.1 54.3685 145.3C47.9832 142.947 42.7604 140.083 38.7 136.707C37.0069 135.299 36.6665 132.893 37.6601 130.928C39.2361 127.811 43.4216 127.11 46.3069 129.078C49.4793 131.242 53.1684 133.177 57.3743 134.883C64.3877 137.571 71.7351 138.915 79.4165 138.915C86.7639 138.915 92.7198 138.019 97.2841 136.227C101.96 134.323 105.355 131.803 107.47 128.666C109.697 125.53 110.81 122.058 110.81 118.25C110.81 113.657 109.474 109.961 106.802 107.161C104.242 104.361 100.846 102.176 96.6161 100.608C92.3858 98.9282 87.7102 97.4721 82.5893 96.24C77.4683 95.0079 72.3474 93.7198 67.2265 92.3757C62.1056 90.9196 57.3743 89.0155 53.0326 86.6633C48.8023 84.3111 45.3512 81.2309 42.6795 77.4226C40.119 73.5023 38.8388 68.4059 38.8388 62.1334C38.8388 56.309 40.3417 50.9886 43.3474 46.1722C46.4645 41.2439 51.1958 37.3236 57.5413 34.4113C63.8868 31.3871 72.0134 29.875 81.9213 29.875C88.4894 29.875 95.0019 30.8271 101.459 32.7312C106.312 34.0782 110.662 35.8365 114.508 38.0061C116.696 39.2396 117.46 41.9473 116.486 44.2615C115.188 47.3419 111.406 48.4559 108.437 46.9209C105.078 45.1846 101.584 43.815 97.952 42.812C92.3858 41.2439 86.9866 40.4598 81.7543 40.4598C74.7409 40.4598 68.952 41.4119 64.3877 43.316C59.8234 45.2202 56.428 47.7964 54.2015 51.0446C52.0864 54.1808 51.0288 57.7651 51.0288 61.7974C51.0288 66.3898 52.309 70.086 54.8695 72.8862C57.5413 75.6865 60.9923 77.8706 65.2227 79.4387C69.5643 81.0069 74.2956 82.407 79.4165 83.6391C84.5374 84.8711 89.6027 86.2153 94.6123 87.6714C99.7332 89.1275 104.409 91.0316 108.639 93.3838C112.981 95.624 116.432 98.6482 118.992 102.456C121.664 106.265 123 111.249 123 117.41C123 123.122 121.441 128.442 118.324 133.371C115.207 138.187 110.42 142.107 103.964 145.132C97.6181 148.044 89.4357 149.5 79.4165 149.5Z" fill="black"/>
<path d="M206.375 156.655V134.449H190.063C186.189 141.863 181.728 149.858 176.894 158.5C175.898 160.281 173.687 160.9 171.952 159.881C170.217 158.859 169.614 156.59 170.606 154.809C177.605 142.297 183.676 131.422 188.307 121.718C192.942 112.003 196.004 103.708 197.114 96.3435C198.209 89.0823 197.405 82.785 194.325 76.8986C191.197 70.9271 185.548 65.0315 176.398 58.9797C174.246 57.5547 173.723 55.0506 174.231 53.123C174.748 51.1756 176.481 49.2447 179.131 49.2427H240.869C243.524 49.2447 245.256 51.1875 245.769 53.1375C246.273 55.0638 245.751 57.556 243.602 58.9797C228.824 68.7544 223.104 78.1221 222.475 88.4668C221.819 99.2808 226.604 112.098 235.304 128.999C239.327 136.813 244.1 145.345 249.394 154.809C250.387 156.59 249.783 158.859 248.048 159.881C246.313 160.9 244.102 160.281 243.106 158.5C238.267 149.849 233.817 141.848 229.952 134.449H213.625V156.655C213.625 158.709 212.002 160.375 210 160.375C207.998 160.375 206.375 158.709 206.375 156.655ZM213.625 127.008H226.171C219.048 112.445 214.53 99.6812 215.239 88.0017C215.962 76.109 221.989 66.041 234.115 56.6835H213.625V127.008ZM185.843 56.6835C192.655 61.9335 197.587 67.4026 200.711 73.3672C204.667 80.9211 205.571 88.9068 204.279 97.4771C203.003 105.947 199.571 115.046 194.82 125.002C194.502 125.669 194.16 126.331 193.829 127.008H206.375V56.6835H185.843ZM260.75 40.5957C262.75 40.5957 264.372 42.2644 264.375 44.3161C264.375 46.3708 262.752 48.0365 260.75 48.0365H159.25C157.248 48.0365 155.625 46.3708 155.625 44.3161C155.628 42.2644 157.25 40.5957 159.25 40.5957H260.75ZM206.375 22.7204C206.375 20.6657 207.998 19 210 19C212.002 19 213.625 20.6657 213.625 22.7204V31.9633H231.75C233.752 31.9633 235.375 33.6289 235.375 35.6836C235.374 37.7375 233.751 39.404 231.75 39.404H188.25C186.249 39.404 184.626 37.7375 184.625 35.6836C184.625 33.6289 186.248 31.9633 188.25 31.9633H206.375V22.7204Z" fill="black"/>
</svg>
