<svg width="442" height="590" viewBox="0 0 442 590" fill="none" xmlns="http://www.w3.org/2000/svg">
<mask id="mask0_10_73" style="mask-type:alpha" maskUnits="userSpaceOnUse" x="0" y="0" width="442" height="590">
<path d="M196.444 425.182C196.443 397.821 185.306 377.749 168.787 364.353C152.063 350.792 129.411 343.778 106.407 343.778C83.4041 343.778 60.7522 350.792 44.0274 364.353C27.5087 377.749 16.3719 397.821 16.3704 425.182V491.559C16.3717 518.92 27.5086 538.992 44.0274 552.388C60.7522 565.949 83.4041 572.963 106.407 572.963C129.411 572.963 152.063 565.949 168.787 552.388C185.306 538.992 196.443 518.92 196.444 491.559C196.444 487.038 200.109 483.374 204.63 483.374C209.15 483.374 212.815 487.038 212.815 491.559C212.814 523.919 199.392 548.647 179.083 565.114C158.975 581.414 132.512 589.333 106.407 589.333C80.3029 589.333 53.8395 581.414 33.7319 565.114C13.4227 548.647 0.00136951 523.919 0 491.559V425.182C0.00153604 392.822 13.4229 368.094 33.7319 351.627C53.8395 335.327 80.3029 327.407 106.407 327.407C132.512 327.407 158.975 335.327 179.083 351.627C199.392 368.094 212.813 392.822 212.815 425.182C212.815 429.703 209.15 433.367 204.63 433.367C200.109 433.367 196.444 429.703 196.444 425.182Z" fill="white"/>
<path d="M196.444 85.0812C196.444 62.4691 185.773 45.6208 169.267 34.1316C152.512 22.4713 129.682 16.3704 106.407 16.3704C83.1327 16.3704 60.303 22.4713 43.5477 34.1316C27.0418 45.6208 16.3712 62.469 16.3704 85.0812C16.3704 96.5694 18.6896 105.384 22.6052 112.338C26.5158 119.283 32.3035 124.88 40.0147 129.508C55.8104 138.986 78.8245 143.951 107.511 147.845C136.284 151.751 162.322 157.577 181.273 169.139C190.892 175.008 198.876 182.471 204.422 192.048C209.977 201.644 212.815 212.905 212.815 225.956C212.814 254.604 198.926 276.208 178.603 290.35C158.526 304.32 132.241 311.037 106.407 311.037C80.5741 311.037 54.2887 304.32 34.2115 290.35C13.889 276.208 0.00069275 254.604 0 225.956C0 221.435 3.66463 217.771 8.18519 217.771C12.7057 217.771 16.3704 221.435 16.3704 225.956C16.371 248.568 27.0417 265.416 43.5477 276.905C60.303 288.566 83.1327 294.667 106.407 294.667C129.682 294.667 152.512 288.566 169.267 276.905C185.773 265.416 196.444 248.568 196.444 225.956C196.444 215.347 194.165 206.999 190.258 200.249C186.34 193.483 180.509 187.854 172.736 183.112C156.901 173.452 133.824 167.943 105.304 164.071C76.6958 160.188 50.5964 154.939 31.6057 143.545C21.9286 137.738 13.8972 130.237 8.34505 120.38C2.79775 110.529 0 98.829 0 85.0812C0.000850366 56.4331 13.8891 34.8295 34.2115 20.6868C54.2887 6.71753 80.5741 -1.15227e-05 106.407 0C132.241 1.21924e-05 158.526 6.71754 178.603 20.6868C198.926 34.8295 212.814 56.4332 212.815 85.0812C212.815 89.6017 209.15 93.2664 204.63 93.2664C200.109 93.2664 196.444 89.6017 196.444 85.0812Z" fill="white"/>
<path d="M328.499 302.852V253.997H296.576C288.997 270.309 280.266 287.898 270.806 306.913C268.857 310.829 264.531 312.192 261.135 309.95C257.74 307.701 256.559 302.71 258.503 298.791C272.198 271.264 284.079 247.338 293.14 225.988C302.211 204.614 308.203 186.364 310.376 170.162C312.518 154.187 310.945 140.332 304.917 127.382C298.797 114.244 287.742 101.273 269.836 87.9588C265.625 84.8237 264.602 79.3144 265.596 75.0735C266.607 70.789 269.999 66.5409 275.184 66.5366H396.001C401.196 66.5409 404.585 70.8153 405.589 75.1055C406.576 79.3433 405.554 84.8265 401.349 87.9588C372.429 109.464 361.235 130.074 360.005 152.833C358.722 176.625 368.085 204.824 385.111 242.007C392.984 259.199 402.323 277.97 412.682 298.791C414.626 302.71 413.445 307.701 410.05 309.95C406.654 312.192 402.328 310.829 400.379 306.913C390.909 287.879 382.201 270.276 374.636 253.997H342.686V302.852C342.686 307.372 339.51 311.037 335.592 311.037C331.675 311.037 328.499 307.372 328.499 302.852ZM342.686 237.626H367.238C353.299 205.586 344.458 177.505 345.845 151.81C347.26 125.645 359.055 103.494 382.783 82.907H342.686V237.626ZM288.319 82.907C301.649 94.4574 311.301 106.49 317.415 119.612C325.155 136.232 326.925 153.801 324.398 172.656C321.9 191.29 315.183 211.31 305.887 233.214C305.265 234.68 304.595 236.138 303.947 237.626H328.499V82.907H288.319ZM434.906 47.5125C438.82 47.5125 441.993 51.1837 442 55.6976C442 60.2182 438.824 63.8828 434.906 63.8828H236.279C232.361 63.8828 229.185 60.2182 229.185 55.6976C229.192 51.1837 232.365 47.5125 236.279 47.5125H434.906ZM328.499 8.18519C328.499 3.66463 331.675 0 335.592 0C339.51 0 342.686 3.66463 342.686 8.18519V28.5203H378.155C382.073 28.5203 385.249 32.1849 385.249 36.7054C385.247 41.2241 382.072 44.8906 378.155 44.8906H293.03C289.113 44.8906 285.938 41.2241 285.936 36.7054C285.936 32.1849 289.112 28.5203 293.03 28.5203H328.499V8.18519Z" fill="white"/>
<path d="M425.63 458.37C425.63 424.043 423.43 395.575 411.449 375.607C400.127 356.74 378.86 343.778 335.592 343.778C314.052 343.778 298.034 347.675 286.05 353.929C274.143 360.143 265.791 368.915 259.848 379.412C247.713 400.844 245.555 429.541 245.555 458.37C245.555 487.2 247.713 515.896 259.848 537.329C265.791 547.826 274.143 556.597 286.05 562.811C298.034 569.065 314.052 572.963 335.592 572.963C378.86 572.963 400.127 560 411.449 541.134C423.43 521.166 425.63 492.697 425.63 458.37ZM442 458.37C442 492.251 440.105 525.174 425.486 549.543C410.205 575.01 382.359 589.333 335.592 589.333C312.115 589.333 293.346 585.09 278.472 577.327C263.521 569.525 252.945 558.396 245.587 545.402C231.122 519.853 229.185 487.164 229.185 458.37C229.185 429.576 231.122 396.888 245.587 371.339C252.945 358.345 263.521 347.216 278.472 339.413C293.346 331.651 312.115 327.407 335.592 327.407C382.359 327.407 410.205 341.731 425.486 367.198C440.105 391.567 442 424.49 442 458.37Z" fill="white"/>
</mask>
<g mask="url(#mask0_10_73)">
<rect x="-178" y="-174" width="851" height="904" fill="url(#paint0_linear_10_73)"/>
</g>
<defs>
<linearGradient id="paint0_linear_10_73" x1="-184.48" y1="-167.117" x2="723.909" y2="675.091" gradientUnits="userSpaceOnUse">
<stop stop-color="#003DB6"/>
<stop offset="1" stop-color="#00AB6A"/>
</linearGradient>
</defs>
</svg>
