<svg width="300" height="300" viewBox="0 0 300 300" fill="none" xmlns="http://www.w3.org/2000/svg">
<path d="M219.085 300C210.128 300 201.795 298.478 194.085 295.435C186.489 292.275 179.856 287.886 174.187 282.268C168.632 276.533 164.266 269.92 161.092 262.43C158.031 254.822 156.5 246.512 156.5 237.5C156.5 228.488 158.031 220.236 161.092 212.746C164.266 205.138 168.632 198.525 174.187 192.907C179.856 187.172 186.489 182.783 194.085 179.74C201.681 176.58 210.015 175 219.085 175C228.042 175 236.319 176.58 243.915 179.74C251.511 182.783 258.087 187.114 263.643 192.732C269.312 198.35 273.677 204.963 276.738 212.57C279.913 220.178 281.5 228.488 281.5 237.5C281.5 246.512 279.913 254.822 276.738 262.43C273.677 270.037 269.312 276.65 263.643 282.268C258.087 287.886 251.511 292.275 243.915 295.435C236.319 298.478 228.042 300 219.085 300ZM219.085 288.413C226.228 288.413 232.804 287.184 238.813 284.726C244.935 282.151 250.207 278.581 254.629 274.017C259.164 269.335 262.679 263.951 265.173 257.865C267.668 251.662 268.915 244.874 268.915 237.5C268.915 230.126 267.668 223.397 265.173 217.31C262.679 211.107 259.164 205.723 254.629 201.159C250.207 196.477 244.935 192.907 238.813 190.449C232.804 187.875 226.228 186.587 219.085 186.587C211.942 186.587 205.31 187.875 199.187 190.449C193.065 192.907 187.736 196.477 183.201 201.159C178.779 205.723 175.264 211.107 172.656 217.31C170.162 223.397 168.915 230.126 168.915 237.5C168.915 244.757 170.162 251.486 172.656 257.69C175.264 263.893 178.779 269.335 183.201 274.017C187.736 278.581 193.065 282.151 199.187 284.726C205.31 287.184 211.942 288.413 219.085 288.413Z" fill="black"/>
<path d="M85.0915 300C75.5811 300 66.7929 298.478 58.7271 295.435C50.6613 292.275 43.679 287.886 37.7801 282.268C31.8812 276.65 27.2464 270.037 23.8756 262.43C20.6252 254.822 19 246.512 19 237.5C19 228.488 20.6252 220.178 23.8756 212.57C27.2464 204.963 31.8812 198.35 37.7801 192.732C43.7994 187.114 50.8419 182.783 58.9077 179.74C66.9735 176.58 75.7616 175 85.2721 175C94.4213 175 103.029 176.522 111.095 179.565C117.202 181.78 122.585 184.868 127.243 188.829C129.742 190.953 129.622 194.733 127.271 197.019C124.908 199.316 121.164 199.257 118.58 197.211C114.622 194.076 110.382 191.705 105.858 190.098C99.5979 187.757 92.8563 186.587 85.6332 186.587C78.049 186.587 71.0064 187.875 64.5056 190.449C58.0048 192.907 52.3467 196.477 47.5313 201.159C42.7159 205.723 38.9237 211.107 36.1549 217.31C33.5064 223.397 32.1822 230.126 32.1822 237.5C32.1822 244.874 33.5064 251.662 36.1549 257.865C38.9237 263.951 42.7159 269.335 47.5313 274.017C52.3467 278.581 58.0048 282.151 64.5056 284.726C71.0064 287.184 78.049 288.413 85.6332 288.413C92.8563 288.413 99.5979 287.243 105.858 284.902C110.384 283.209 114.627 280.782 118.587 277.621C121.163 275.565 124.908 275.508 127.271 277.805C129.622 280.092 129.741 283.87 127.248 286.001C122.589 289.986 117.205 293.13 111.095 295.435C103.029 298.478 94.3612 300 85.0915 300Z" fill="black"/>
<path d="M68.904 150C58.9232 150 49.3263 148.391 40.1132 145.172C32.7738 142.468 26.7706 139.176 22.1034 135.295C20.1574 133.677 19.7661 130.911 20.9082 128.653C22.7196 125.07 27.5306 124.264 30.847 126.526C34.4934 129.013 38.7338 131.237 43.5681 133.199C51.6296 136.289 60.0749 137.834 68.904 137.834C77.3493 137.834 84.1951 136.804 89.4415 134.744C94.8158 132.555 98.7185 129.658 101.15 126.053C103.709 122.449 104.989 118.457 104.989 114.08C104.989 108.802 103.453 104.553 100.382 101.334C97.4389 98.1156 93.5362 95.6051 88.6737 93.8027C83.8113 91.8715 78.437 90.1978 72.5509 88.7816C66.6648 87.3654 60.7786 85.8848 54.8925 84.3399C49.0064 82.6662 43.5681 80.4775 38.5777 77.7739C33.7153 75.0702 29.7486 71.5297 26.6775 67.1524C23.7345 62.6463 22.263 56.7884 22.263 49.5787C22.263 42.8839 23.9904 36.7685 27.4453 31.2324C31.0282 25.5676 36.4664 21.0616 43.7601 17.7142C51.0537 14.2381 60.3948 12.5 71.7831 12.5C79.3327 12.5 86.8183 13.5943 94.2399 15.783C99.8181 17.3313 104.818 19.3523 109.24 21.846C111.754 23.2639 112.632 26.3762 111.512 29.0362C110.021 32.5769 105.673 33.8574 102.261 32.0929C98.4005 30.0973 94.3834 28.523 90.2092 27.3701C83.8113 25.5677 77.6053 24.6664 71.5912 24.6664C63.5298 24.6664 56.8759 25.7608 51.6296 27.9494C46.3832 30.1381 42.4805 33.0993 39.9213 36.8329C37.4901 40.4377 36.2745 44.5576 36.2745 49.1924C36.2745 54.471 37.746 58.7196 40.6891 61.9382C43.7601 65.1568 47.7268 67.6674 52.5893 69.4698C57.5797 71.2722 63.0179 72.8816 68.904 74.2978C74.7902 75.714 80.6123 77.2589 86.3705 78.9326C92.2566 80.6063 97.6309 82.795 102.493 85.4986C107.484 88.0735 111.45 91.5496 114.393 95.927C117.465 100.304 119 106.033 119 113.114C119 119.68 117.209 125.796 113.626 131.461C110.043 136.997 104.541 141.503 97.119 144.979C89.8253 148.326 80.4204 150 68.904 150Z" fill="black"/>
<path d="M214.833 158.224V132.699H196.083C191.631 141.222 186.503 150.411 180.947 160.345C179.802 162.392 177.261 163.103 175.266 161.932C173.272 160.757 172.579 158.15 173.72 156.102C181.764 141.721 188.743 129.221 194.065 118.066C199.393 106.9 202.912 97.365 204.189 88.9006C205.447 80.5544 204.523 73.3161 200.982 66.5502C197.388 59.6863 190.894 52.9098 180.377 45.9537C177.903 44.3158 177.303 41.4375 177.887 39.2218C178.48 36.9834 180.473 34.764 183.518 34.7618H254.482C257.533 34.764 259.524 36.9971 260.113 39.2385C260.694 41.4526 260.093 44.3173 257.623 45.9537C240.637 57.1889 234.062 67.9564 233.339 79.8468C232.586 92.2768 238.085 107.009 248.085 126.435C252.709 135.417 258.195 145.224 264.28 156.102C265.421 158.15 264.728 160.757 262.734 161.932C260.739 163.103 258.198 162.392 257.053 160.345C251.491 150.401 246.376 141.205 241.933 132.699H223.167V158.224C223.167 160.585 221.301 162.5 219 162.5C216.699 162.5 214.833 160.585 214.833 158.224ZM223.167 124.147H237.587C229.4 107.408 224.207 92.737 225.022 79.3123C225.853 65.6425 232.781 54.0701 246.718 43.3144H223.167V124.147ZM191.233 43.3144C199.063 49.3489 204.732 55.6351 208.323 62.491C212.87 71.1736 213.909 80.3526 212.424 90.2035C210.957 99.9388 207.012 110.398 201.552 121.842C201.187 122.608 200.793 123.369 200.413 124.147H214.833V43.3144H191.233ZM277.333 24.8227C279.632 24.8227 281.496 26.7407 281.5 29.099C281.5 31.4607 279.635 33.3753 277.333 33.3753H160.667C158.365 33.3753 156.5 31.4607 156.5 29.099C156.504 26.7407 158.368 24.8227 160.667 24.8227H277.333ZM214.833 4.27632C214.833 1.91457 216.699 0 219 0C221.301 0 223.167 1.91457 223.167 4.27632V14.9003H244C246.301 14.9003 248.167 16.8149 248.167 19.1766C248.166 21.5374 246.3 23.4529 244 23.4529H194C191.7 23.4529 189.834 21.5374 189.833 19.1766C189.833 16.8149 191.699 14.9003 194 14.9003H214.833V4.27632Z" fill="black"/>
</svg>
